<mxfile host="app.diagrams.net" agent="Mozilla/5.0 (Windows NT 10.0; Win64; x64) AppleWebKit/537.36 (KHTML, like Gecko) Chrome/131.0.0.0 Safari/537.36" version="25.0.3">
  <diagram name="Stránka-1" id="oJVj2x4Y4NHr1Bj4TjfE">
    <mxGraphModel dx="1707" dy="468" grid="1" gridSize="10" guides="1" tooltips="1" connect="1" arrows="1" fold="1" page="1" pageScale="1" pageWidth="827" pageHeight="1169" math="0" shadow="0">
      <root>
        <mxCell id="0" />
        <mxCell id="1" parent="0" />
        <mxCell id="789SzDQSiB8ODkU7dapb-7" value="CS" style="shape=umlLifeline;perimeter=lifelinePerimeter;whiteSpace=wrap;html=1;container=1;dropTarget=0;collapsible=0;recursiveResize=0;outlineConnect=0;portConstraint=eastwest;newEdgeStyle={&quot;curved&quot;:0,&quot;rounded&quot;:0};" parent="1" vertex="1">
          <mxGeometry x="190" y="80" width="100" height="1090" as="geometry" />
        </mxCell>
        <mxCell id="789SzDQSiB8ODkU7dapb-21" value="" style="html=1;points=[[0,0,0,0,5],[0,1,0,0,-5],[1,0,0,0,5],[1,1,0,0,-5]];perimeter=orthogonalPerimeter;outlineConnect=0;targetShapes=umlLifeline;portConstraint=eastwest;newEdgeStyle={&quot;curved&quot;:0,&quot;rounded&quot;:0};" parent="789SzDQSiB8ODkU7dapb-7" vertex="1">
          <mxGeometry x="45" y="80" width="10" height="60" as="geometry" />
        </mxCell>
        <mxCell id="789SzDQSiB8ODkU7dapb-8" value="Zákazník" style="shape=umlLifeline;perimeter=lifelinePerimeter;whiteSpace=wrap;html=1;container=1;dropTarget=0;collapsible=0;recursiveResize=0;outlineConnect=0;portConstraint=eastwest;newEdgeStyle={&quot;curved&quot;:0,&quot;rounded&quot;:0};" parent="1" vertex="1">
          <mxGeometry x="-30" y="80" width="100" height="1090" as="geometry" />
        </mxCell>
        <mxCell id="789SzDQSiB8ODkU7dapb-6" value="" style="html=1;points=[[0,0,0,0,5],[0,1,0,0,-5],[1,0,0,0,5],[1,1,0,0,-5]];perimeter=orthogonalPerimeter;outlineConnect=0;targetShapes=umlLifeline;portConstraint=eastwest;newEdgeStyle={&quot;curved&quot;:0,&quot;rounded&quot;:0};" parent="789SzDQSiB8ODkU7dapb-8" vertex="1">
          <mxGeometry x="45" y="40" width="10" height="40" as="geometry" />
        </mxCell>
        <mxCell id="789SzDQSiB8ODkU7dapb-52" value="" style="html=1;points=[[0,0,0,0,5],[0,1,0,0,-5],[1,0,0,0,5],[1,1,0,0,-5]];perimeter=orthogonalPerimeter;outlineConnect=0;targetShapes=umlLifeline;portConstraint=eastwest;newEdgeStyle={&quot;curved&quot;:0,&quot;rounded&quot;:0};" parent="789SzDQSiB8ODkU7dapb-8" vertex="1">
          <mxGeometry x="45" y="480" width="10" height="160" as="geometry" />
        </mxCell>
        <mxCell id="789SzDQSiB8ODkU7dapb-58" value="" style="html=1;points=[[0,0,0,0,5],[0,1,0,0,-5],[1,0,0,0,5],[1,1,0,0,-5]];perimeter=orthogonalPerimeter;outlineConnect=0;targetShapes=umlLifeline;portConstraint=eastwest;newEdgeStyle={&quot;curved&quot;:0,&quot;rounded&quot;:0};" parent="789SzDQSiB8ODkU7dapb-8" vertex="1">
          <mxGeometry x="45" y="1000" width="10" height="40" as="geometry" />
        </mxCell>
        <mxCell id="789SzDQSiB8ODkU7dapb-9" value="Shipping" style="shape=umlLifeline;perimeter=lifelinePerimeter;whiteSpace=wrap;html=1;container=1;dropTarget=0;collapsible=0;recursiveResize=0;outlineConnect=0;portConstraint=eastwest;newEdgeStyle={&quot;curved&quot;:0,&quot;rounded&quot;:0};" parent="1" vertex="1">
          <mxGeometry x="364" y="80" width="100" height="1090" as="geometry" />
        </mxCell>
        <mxCell id="789SzDQSiB8ODkU7dapb-27" value="" style="html=1;points=[[0,0,0,0,5],[0,1,0,0,-5],[1,0,0,0,5],[1,1,0,0,-5]];perimeter=orthogonalPerimeter;outlineConnect=0;targetShapes=umlLifeline;portConstraint=eastwest;newEdgeStyle={&quot;curved&quot;:0,&quot;rounded&quot;:0};" parent="789SzDQSiB8ODkU7dapb-9" vertex="1">
          <mxGeometry x="45" y="180" width="10" height="80" as="geometry" />
        </mxCell>
        <mxCell id="789SzDQSiB8ODkU7dapb-10" value="Invoicing" style="shape=umlLifeline;perimeter=lifelinePerimeter;whiteSpace=wrap;html=1;container=1;dropTarget=0;collapsible=0;recursiveResize=0;outlineConnect=0;portConstraint=eastwest;newEdgeStyle={&quot;curved&quot;:0,&quot;rounded&quot;:0};" parent="1" vertex="1">
          <mxGeometry x="540" y="80" width="100" height="1090" as="geometry" />
        </mxCell>
        <mxCell id="789SzDQSiB8ODkU7dapb-32" value="" style="html=1;points=[[0,0,0,0,5],[0,1,0,0,-5],[1,0,0,0,5],[1,1,0,0,-5]];perimeter=orthogonalPerimeter;outlineConnect=0;targetShapes=umlLifeline;portConstraint=eastwest;newEdgeStyle={&quot;curved&quot;:0,&quot;rounded&quot;:0};" parent="789SzDQSiB8ODkU7dapb-10" vertex="1">
          <mxGeometry x="45" y="320" width="10" height="40" as="geometry" />
        </mxCell>
        <mxCell id="789SzDQSiB8ODkU7dapb-38" value="" style="html=1;points=[[0,0,0,0,5],[0,1,0,0,-5],[1,0,0,0,5],[1,1,0,0,-5]];perimeter=orthogonalPerimeter;outlineConnect=0;targetShapes=umlLifeline;portConstraint=eastwest;newEdgeStyle={&quot;curved&quot;:0,&quot;rounded&quot;:0};" parent="789SzDQSiB8ODkU7dapb-10" vertex="1">
          <mxGeometry x="45" y="400" width="10" height="40" as="geometry" />
        </mxCell>
        <mxCell id="789SzDQSiB8ODkU7dapb-47" value="" style="html=1;points=[[0,0,0,0,5],[0,1,0,0,-5],[1,0,0,0,5],[1,1,0,0,-5]];perimeter=orthogonalPerimeter;outlineConnect=0;targetShapes=umlLifeline;portConstraint=eastwest;newEdgeStyle={&quot;curved&quot;:0,&quot;rounded&quot;:0};" parent="789SzDQSiB8ODkU7dapb-10" vertex="1">
          <mxGeometry x="45" y="480" width="10" height="40" as="geometry" />
        </mxCell>
        <mxCell id="789SzDQSiB8ODkU7dapb-66" value="" style="html=1;points=[[0,0,0,0,5],[0,1,0,0,-5],[1,0,0,0,5],[1,1,0,0,-5]];perimeter=orthogonalPerimeter;outlineConnect=0;targetShapes=umlLifeline;portConstraint=eastwest;newEdgeStyle={&quot;curved&quot;:0,&quot;rounded&quot;:0};" parent="789SzDQSiB8ODkU7dapb-10" vertex="1">
          <mxGeometry x="45" y="840" width="10" height="80" as="geometry" />
        </mxCell>
        <mxCell id="789SzDQSiB8ODkU7dapb-11" value="Credit Management" style="shape=umlLifeline;perimeter=lifelinePerimeter;whiteSpace=wrap;html=1;container=1;dropTarget=0;collapsible=0;recursiveResize=0;outlineConnect=0;portConstraint=eastwest;newEdgeStyle={&quot;curved&quot;:0,&quot;rounded&quot;:0};" parent="1" vertex="1">
          <mxGeometry x="710" y="80" width="100" height="1090" as="geometry" />
        </mxCell>
        <mxCell id="789SzDQSiB8ODkU7dapb-54" value="" style="html=1;points=[[0,0,0,0,5],[0,1,0,0,-5],[1,0,0,0,5],[1,1,0,0,-5]];perimeter=orthogonalPerimeter;outlineConnect=0;targetShapes=umlLifeline;portConstraint=eastwest;newEdgeStyle={&quot;curved&quot;:0,&quot;rounded&quot;:0};" parent="789SzDQSiB8ODkU7dapb-11" vertex="1">
          <mxGeometry x="45" y="640" width="10" height="40" as="geometry" />
        </mxCell>
        <mxCell id="789SzDQSiB8ODkU7dapb-62" value="" style="html=1;points=[[0,0,0,0,5],[0,1,0,0,-5],[1,0,0,0,5],[1,1,0,0,-5]];perimeter=orthogonalPerimeter;outlineConnect=0;targetShapes=umlLifeline;portConstraint=eastwest;newEdgeStyle={&quot;curved&quot;:0,&quot;rounded&quot;:0};" parent="789SzDQSiB8ODkU7dapb-11" vertex="1">
          <mxGeometry x="45" y="760" width="10" height="80" as="geometry" />
        </mxCell>
        <mxCell id="789SzDQSiB8ODkU7dapb-22" value="odsouhlasení objednávky" style="html=1;verticalAlign=bottom;endArrow=block;curved=0;rounded=0;" parent="1" source="789SzDQSiB8ODkU7dapb-6" target="789SzDQSiB8ODkU7dapb-21" edge="1">
          <mxGeometry width="80" relative="1" as="geometry">
            <mxPoint x="70" y="160" as="sourcePoint" />
            <mxPoint x="150" y="160" as="targetPoint" />
          </mxGeometry>
        </mxCell>
        <mxCell id="789SzDQSiB8ODkU7dapb-23" value="Objednávka" style="shape=umlLifeline;perimeter=lifelinePerimeter;whiteSpace=wrap;html=1;container=1;dropTarget=0;collapsible=0;recursiveResize=0;outlineConnect=0;portConstraint=eastwest;newEdgeStyle={&quot;curved&quot;:0,&quot;rounded&quot;:0};" parent="1" vertex="1">
          <mxGeometry x="70" y="180" width="100" height="380" as="geometry" />
        </mxCell>
        <mxCell id="789SzDQSiB8ODkU7dapb-25" value="" style="html=1;points=[[0,0,0,0,5],[0,1,0,0,-5],[1,0,0,0,5],[1,1,0,0,-5]];perimeter=orthogonalPerimeter;outlineConnect=0;targetShapes=umlLifeline;portConstraint=eastwest;newEdgeStyle={&quot;curved&quot;:0,&quot;rounded&quot;:0};" parent="789SzDQSiB8ODkU7dapb-23" vertex="1">
          <mxGeometry x="45" y="40" width="10" height="340" as="geometry" />
        </mxCell>
        <mxCell id="789SzDQSiB8ODkU7dapb-24" value="zadá obj" style="html=1;verticalAlign=bottom;endArrow=block;curved=0;rounded=0;" parent="1" source="789SzDQSiB8ODkU7dapb-7" edge="1">
          <mxGeometry width="80" relative="1" as="geometry">
            <mxPoint x="230" y="220" as="sourcePoint" />
            <mxPoint x="169.75" y="220" as="targetPoint" />
          </mxGeometry>
        </mxCell>
        <mxCell id="789SzDQSiB8ODkU7dapb-26" value="přebírá objednávku" style="html=1;verticalAlign=bottom;endArrow=block;curved=0;rounded=0;" parent="1" target="789SzDQSiB8ODkU7dapb-9" edge="1">
          <mxGeometry width="80" relative="1" as="geometry">
            <mxPoint x="130" y="260" as="sourcePoint" />
            <mxPoint x="210" y="260" as="targetPoint" />
          </mxGeometry>
        </mxCell>
        <mxCell id="789SzDQSiB8ODkU7dapb-28" value="dodací list" style="shape=umlLifeline;perimeter=lifelinePerimeter;whiteSpace=wrap;html=1;container=1;dropTarget=0;collapsible=0;recursiveResize=0;outlineConnect=0;portConstraint=eastwest;newEdgeStyle={&quot;curved&quot;:0,&quot;rounded&quot;:0};" parent="1" vertex="1">
          <mxGeometry x="260" y="300" width="100" height="870" as="geometry" />
        </mxCell>
        <mxCell id="789SzDQSiB8ODkU7dapb-29" value="" style="html=1;points=[[0,0,0,0,5],[0,1,0,0,-5],[1,0,0,0,5],[1,1,0,0,-5]];perimeter=orthogonalPerimeter;outlineConnect=0;targetShapes=umlLifeline;portConstraint=eastwest;newEdgeStyle={&quot;curved&quot;:0,&quot;rounded&quot;:0};" parent="789SzDQSiB8ODkU7dapb-28" vertex="1">
          <mxGeometry x="45" y="40" width="10" height="60" as="geometry" />
        </mxCell>
        <mxCell id="789SzDQSiB8ODkU7dapb-33" value="" style="html=1;points=[[0,0,0,0,5],[0,1,0,0,-5],[1,0,0,0,5],[1,1,0,0,-5]];perimeter=orthogonalPerimeter;outlineConnect=0;targetShapes=umlLifeline;portConstraint=eastwest;newEdgeStyle={&quot;curved&quot;:0,&quot;rounded&quot;:0};" parent="789SzDQSiB8ODkU7dapb-28" vertex="1">
          <mxGeometry x="45" y="140" width="10" height="40" as="geometry" />
        </mxCell>
        <mxCell id="789SzDQSiB8ODkU7dapb-30" value="vystaví" style="html=1;verticalAlign=bottom;endArrow=block;curved=0;rounded=0;" parent="1" edge="1">
          <mxGeometry width="80" relative="1" as="geometry">
            <mxPoint x="413.25" y="340" as="sourcePoint" />
            <mxPoint x="360" y="340" as="targetPoint" />
          </mxGeometry>
        </mxCell>
        <mxCell id="789SzDQSiB8ODkU7dapb-31" value="přebírá dodací list" style="html=1;verticalAlign=bottom;endArrow=block;curved=0;rounded=0;" parent="1" edge="1">
          <mxGeometry width="80" relative="1" as="geometry">
            <mxPoint x="310" y="400" as="sourcePoint" />
            <mxPoint x="590" y="400" as="targetPoint" />
          </mxGeometry>
        </mxCell>
        <mxCell id="789SzDQSiB8ODkU7dapb-34" value="kontrola dat" style="html=1;verticalAlign=bottom;endArrow=block;curved=0;rounded=0;" parent="1" source="789SzDQSiB8ODkU7dapb-10" edge="1">
          <mxGeometry width="80" relative="1" as="geometry">
            <mxPoint x="514.25" y="440" as="sourcePoint" />
            <mxPoint x="313.75" y="440" as="targetPoint" />
          </mxGeometry>
        </mxCell>
        <mxCell id="789SzDQSiB8ODkU7dapb-35" value="" style="html=1;verticalAlign=bottom;labelBackgroundColor=none;endArrow=block;endFill=1;dashed=1;rounded=0;" parent="1" target="789SzDQSiB8ODkU7dapb-10" edge="1">
          <mxGeometry width="160" relative="1" as="geometry">
            <mxPoint x="320" y="480" as="sourcePoint" />
            <mxPoint x="480" y="480" as="targetPoint" />
          </mxGeometry>
        </mxCell>
        <mxCell id="789SzDQSiB8ODkU7dapb-36" value="hotovo" style="edgeLabel;html=1;align=center;verticalAlign=middle;resizable=0;points=[];" parent="789SzDQSiB8ODkU7dapb-35" vertex="1" connectable="0">
          <mxGeometry x="0.1132" relative="1" as="geometry">
            <mxPoint y="-10" as="offset" />
          </mxGeometry>
        </mxCell>
        <mxCell id="789SzDQSiB8ODkU7dapb-39" value="Faktura" style="shape=umlLifeline;perimeter=lifelinePerimeter;whiteSpace=wrap;html=1;container=1;dropTarget=0;collapsible=0;recursiveResize=0;outlineConnect=0;portConstraint=eastwest;newEdgeStyle={&quot;curved&quot;:0,&quot;rounded&quot;:0};" parent="1" vertex="1">
          <mxGeometry x="640" y="480" width="100" height="690" as="geometry" />
        </mxCell>
        <mxCell id="789SzDQSiB8ODkU7dapb-37" value="" style="html=1;points=[[0,0,0,0,5],[0,1,0,0,-5],[1,0,0,0,5],[1,1,0,0,-5]];perimeter=orthogonalPerimeter;outlineConnect=0;targetShapes=umlLifeline;portConstraint=eastwest;newEdgeStyle={&quot;curved&quot;:0,&quot;rounded&quot;:0};" parent="789SzDQSiB8ODkU7dapb-39" vertex="1">
          <mxGeometry x="45" y="40" width="10" height="40" as="geometry" />
        </mxCell>
        <mxCell id="789SzDQSiB8ODkU7dapb-49" value="" style="html=1;points=[[0,0,0,0,5],[0,1,0,0,-5],[1,0,0,0,5],[1,1,0,0,-5]];perimeter=orthogonalPerimeter;outlineConnect=0;targetShapes=umlLifeline;portConstraint=eastwest;newEdgeStyle={&quot;curved&quot;:0,&quot;rounded&quot;:0};" parent="789SzDQSiB8ODkU7dapb-39" vertex="1">
          <mxGeometry x="45" y="120" width="10" height="40" as="geometry" />
        </mxCell>
        <mxCell id="789SzDQSiB8ODkU7dapb-56" value="" style="html=1;points=[[0,0,0,0,5],[0,1,0,0,-5],[1,0,0,0,5],[1,1,0,0,-5]];perimeter=orthogonalPerimeter;outlineConnect=0;targetShapes=umlLifeline;portConstraint=eastwest;newEdgeStyle={&quot;curved&quot;:0,&quot;rounded&quot;:0};" parent="789SzDQSiB8ODkU7dapb-39" vertex="1">
          <mxGeometry x="45" y="280" width="10" height="80" as="geometry" />
        </mxCell>
        <mxCell id="789SzDQSiB8ODkU7dapb-42" value="vystaví" style="html=1;verticalAlign=bottom;endArrow=block;curved=0;rounded=0;" parent="1" edge="1">
          <mxGeometry width="80" relative="1" as="geometry">
            <mxPoint x="590" y="520" as="sourcePoint" />
            <mxPoint x="649.5" y="520" as="targetPoint" />
          </mxGeometry>
        </mxCell>
        <mxCell id="789SzDQSiB8ODkU7dapb-46" value="odeslání fa" style="html=1;verticalAlign=bottom;endArrow=block;curved=0;rounded=0;" parent="1" source="789SzDQSiB8ODkU7dapb-37" edge="1">
          <mxGeometry width="80" relative="1" as="geometry">
            <mxPoint x="380" y="560" as="sourcePoint" />
            <mxPoint x="20" y="560" as="targetPoint" />
          </mxGeometry>
        </mxCell>
        <mxCell id="789SzDQSiB8ODkU7dapb-48" value="kontrola odeslání" style="html=1;verticalAlign=bottom;endArrow=block;curved=0;rounded=0;" parent="1" target="789SzDQSiB8ODkU7dapb-39" edge="1">
          <mxGeometry width="80" relative="1" as="geometry">
            <mxPoint x="590" y="600" as="sourcePoint" />
            <mxPoint x="670" y="600" as="targetPoint" />
          </mxGeometry>
        </mxCell>
        <mxCell id="789SzDQSiB8ODkU7dapb-50" value="" style="html=1;verticalAlign=bottom;labelBackgroundColor=none;endArrow=block;endFill=1;dashed=1;rounded=0;" parent="1" target="789SzDQSiB8ODkU7dapb-10" edge="1">
          <mxGeometry width="160" relative="1" as="geometry">
            <mxPoint x="689.5" y="640" as="sourcePoint" />
            <mxPoint x="620" y="640" as="targetPoint" />
          </mxGeometry>
        </mxCell>
        <mxCell id="789SzDQSiB8ODkU7dapb-51" value="hotovo" style="edgeLabel;html=1;align=center;verticalAlign=middle;resizable=0;points=[];" parent="789SzDQSiB8ODkU7dapb-50" vertex="1" connectable="0">
          <mxGeometry x="0.1132" relative="1" as="geometry">
            <mxPoint y="-10" as="offset" />
          </mxGeometry>
        </mxCell>
        <mxCell id="789SzDQSiB8ODkU7dapb-53" value="zák. nespokojen" style="html=1;verticalAlign=bottom;endArrow=block;curved=0;rounded=0;" parent="1" target="789SzDQSiB8ODkU7dapb-11" edge="1">
          <mxGeometry width="80" relative="1" as="geometry">
            <mxPoint x="30" y="720" as="sourcePoint" />
            <mxPoint x="110" y="720" as="targetPoint" />
          </mxGeometry>
        </mxCell>
        <mxCell id="789SzDQSiB8ODkU7dapb-55" value="invoice&lt;div&gt;dispute&lt;/div&gt;" style="html=1;verticalAlign=bottom;endArrow=block;curved=0;rounded=0;" parent="1" target="789SzDQSiB8ODkU7dapb-56" edge="1">
          <mxGeometry width="80" relative="1" as="geometry">
            <mxPoint x="769.5" y="760" as="sourcePoint" />
            <mxPoint x="700" y="760" as="targetPoint" />
          </mxGeometry>
        </mxCell>
        <mxCell id="789SzDQSiB8ODkU7dapb-57" value="Dobropis" style="shape=umlLifeline;perimeter=lifelinePerimeter;whiteSpace=wrap;html=1;container=1;dropTarget=0;collapsible=0;recursiveResize=0;outlineConnect=0;portConstraint=eastwest;newEdgeStyle={&quot;curved&quot;:0,&quot;rounded&quot;:0};size=40;" parent="1" vertex="1">
          <mxGeometry x="440" y="960" width="80" height="210" as="geometry" />
        </mxCell>
        <mxCell id="789SzDQSiB8ODkU7dapb-67" value="" style="html=1;points=[[0,0,0,0,5],[0,1,0,0,-5],[1,0,0,0,5],[1,1,0,0,-5]];perimeter=orthogonalPerimeter;outlineConnect=0;targetShapes=umlLifeline;portConstraint=eastwest;newEdgeStyle={&quot;curved&quot;:0,&quot;rounded&quot;:0};" parent="789SzDQSiB8ODkU7dapb-57" vertex="1">
          <mxGeometry x="35" y="40" width="10" height="80" as="geometry" />
        </mxCell>
        <mxCell id="789SzDQSiB8ODkU7dapb-61" value="vysoká cena" style="html=1;verticalAlign=bottom;endArrow=block;curved=0;rounded=0;" parent="1" target="789SzDQSiB8ODkU7dapb-62" edge="1">
          <mxGeometry width="80" relative="1" as="geometry">
            <mxPoint x="690" y="840" as="sourcePoint" />
            <mxPoint x="740" y="840" as="targetPoint" />
          </mxGeometry>
        </mxCell>
        <mxCell id="789SzDQSiB8ODkU7dapb-63" value="vystavení" style="html=1;verticalAlign=bottom;endArrow=block;curved=0;rounded=0;" parent="1" edge="1">
          <mxGeometry width="80" relative="1" as="geometry">
            <mxPoint x="599.5" y="1000" as="sourcePoint" />
            <mxPoint x="520" y="1000" as="targetPoint" />
          </mxGeometry>
        </mxCell>
        <mxCell id="789SzDQSiB8ODkU7dapb-65" value="pokyn vystavení dobropisu" style="html=1;verticalAlign=bottom;endArrow=block;curved=0;rounded=0;exitX=0;exitY=1;exitDx=0;exitDy=-5;exitPerimeter=0;" parent="1" target="789SzDQSiB8ODkU7dapb-10" edge="1">
          <mxGeometry width="80" relative="1" as="geometry">
            <mxPoint x="765.5" y="920" as="sourcePoint" />
            <mxPoint x="500" y="920" as="targetPoint" />
          </mxGeometry>
        </mxCell>
        <mxCell id="789SzDQSiB8ODkU7dapb-68" value="odeslání" style="html=1;verticalAlign=bottom;endArrow=block;curved=0;rounded=0;" parent="1" edge="1">
          <mxGeometry width="80" relative="1" as="geometry">
            <mxPoint x="479.5000000000002" y="1080" as="sourcePoint" />
            <mxPoint x="25" y="1080" as="targetPoint" />
          </mxGeometry>
        </mxCell>
        <mxCell id="krg61UfC9XrPq3Trl_uh-1" value="" style="endArrow=none;dashed=1;html=1;dashPattern=1 3;strokeWidth=2;rounded=0;" edge="1" parent="1">
          <mxGeometry width="50" height="50" relative="1" as="geometry">
            <mxPoint x="-20" y="1170" as="sourcePoint" />
            <mxPoint x="820" y="1170" as="targetPoint" />
          </mxGeometry>
        </mxCell>
      </root>
    </mxGraphModel>
  </diagram>
</mxfile>
